# xmcd CD database file
#
# Track frame offsets:
#	150
#	3230
#	27797
#	49037
#	61927
#	76617
#	91162
#	103492
#	121565
#	137685
#	153775
#	177252
#	204922
#	225515
#	239500
#	258797
#	273715
#	288505
#	309695
#
# Disc length: 4383 seconds
#
# Revision: 1
# Processed by: cddbd v1.5.2PL0 Copyright (c) Steve Scherf et al.
# Submitted via: CDex 1.51
#
DISCID=ee111d13
DTITLE=The Pharmacy Five plus Three - Two BEAT or not two BEAT
DYEAR=1995
DGENRE=Jazz
TTITLE0=Bay City
TTITLE1=Auntie Skinner's Chicken Dinner
TTITLE2=I wish I could shimmy like my sister Kate
TTITLE3=I love you truly
TTITLE4=The Frisco rag
TTITLE5=De Paarse Heide
TTITLE6=I'm Pecan Pete
TTITLE7=Ace in the hole
TTITLE8=My lovin' Imogene
TTITLE9=Creole Belles
TTITLE10=Jelly Bean Blues
TTITLE11=Custom House Up and Down
TTITLE12=My cutey's due at two to two
TTITLE13=Chimes Blues
TTITLE14=Limehouse Blues
TTITLE15=A hundred years from today
TTITLE16=Old fashioned love
TTITLE17=Down in Honky Tonk Town
TTITLE18=Bay City
EXTD=YEAR: 1995
EXTT0=
EXTT1=
EXTT2=
EXTT3=
EXTT4=
EXTT5=
EXTT6=
EXTT7=
EXTT8=
EXTT9=
EXTT10=
EXTT11=
EXTT12=
EXTT13=
EXTT14=
EXTT15=
EXTT16=
EXTT17=
EXTT18=
PLAYORDER=
